<mxfile host="Electron" agent="Mozilla/5.0 (Windows NT 10.0; Win64; x64) AppleWebKit/537.36 (KHTML, like Gecko) draw.io/24.7.8 Chrome/128.0.6613.36 Electron/32.0.1 Safari/537.36" version="24.7.8">
  <diagram id="R2lEEEUBdFMjLlhIrx00" name="Page-1">
    <mxGraphModel dx="2284" dy="836" grid="1" gridSize="10" guides="1" tooltips="1" connect="1" arrows="1" fold="1" page="1" pageScale="1" pageWidth="850" pageHeight="1100" background="none" math="0" shadow="0" extFonts="Permanent Marker^https://fonts.googleapis.com/css?family=Permanent+Marker">
      <root>
        <mxCell id="0" />
        <mxCell id="1" parent="0" />
        <mxCell id="0vmCwSITMYEpxmgcEM38-18" value="N" style="edgeStyle=orthogonalEdgeStyle;rounded=0;orthogonalLoop=1;jettySize=auto;html=1;" parent="1" source="0vmCwSITMYEpxmgcEM38-1" target="0vmCwSITMYEpxmgcEM38-6" edge="1">
          <mxGeometry y="3" relative="1" as="geometry">
            <mxPoint as="offset" />
          </mxGeometry>
        </mxCell>
        <mxCell id="0vmCwSITMYEpxmgcEM38-29" value="" style="rounded=0;orthogonalLoop=1;jettySize=auto;html=1;" parent="1" source="0vmCwSITMYEpxmgcEM38-1" target="0vmCwSITMYEpxmgcEM38-28" edge="1">
          <mxGeometry relative="1" as="geometry" />
        </mxCell>
        <mxCell id="0vmCwSITMYEpxmgcEM38-33" style="rounded=0;orthogonalLoop=1;jettySize=auto;html=1;entryX=0.8;entryY=0.855;entryDx=0;entryDy=0;entryPerimeter=0;exitX=0.5;exitY=0;exitDx=0;exitDy=0;" parent="1" source="0vmCwSITMYEpxmgcEM38-1" target="0vmCwSITMYEpxmgcEM38-22" edge="1">
          <mxGeometry relative="1" as="geometry">
            <mxPoint x="220" y="327" as="sourcePoint" />
          </mxGeometry>
        </mxCell>
        <mxCell id="0vmCwSITMYEpxmgcEM38-34" value="" style="rounded=0;orthogonalLoop=1;jettySize=auto;html=1;" parent="1" source="0vmCwSITMYEpxmgcEM38-1" target="0vmCwSITMYEpxmgcEM38-23" edge="1">
          <mxGeometry relative="1" as="geometry" />
        </mxCell>
        <mxCell id="0vmCwSITMYEpxmgcEM38-36" value="" style="rounded=0;orthogonalLoop=1;jettySize=auto;html=1;entryX=0.051;entryY=0.752;entryDx=0;entryDy=0;entryPerimeter=0;" parent="1" source="0vmCwSITMYEpxmgcEM38-1" target="0vmCwSITMYEpxmgcEM38-35" edge="1">
          <mxGeometry relative="1" as="geometry" />
        </mxCell>
        <mxCell id="MrFOPrwiMeeWXGFkQ-52-2" style="rounded=0;orthogonalLoop=1;jettySize=auto;html=1;entryX=0.294;entryY=0.976;entryDx=0;entryDy=0;entryPerimeter=0;" parent="1" source="0vmCwSITMYEpxmgcEM38-1" target="MrFOPrwiMeeWXGFkQ-52-1" edge="1">
          <mxGeometry relative="1" as="geometry" />
        </mxCell>
        <mxCell id="MrFOPrwiMeeWXGFkQ-52-16" value="" style="edgeStyle=orthogonalEdgeStyle;rounded=0;orthogonalLoop=1;jettySize=auto;html=1;" parent="1" source="0vmCwSITMYEpxmgcEM38-1" target="0vmCwSITMYEpxmgcEM38-6" edge="1">
          <mxGeometry relative="1" as="geometry">
            <Array as="points">
              <mxPoint x="218" y="390" />
              <mxPoint x="218" y="390" />
            </Array>
          </mxGeometry>
        </mxCell>
        <mxCell id="MrFOPrwiMeeWXGFkQ-52-26" value="1" style="rounded=0;orthogonalLoop=1;jettySize=auto;html=1;" parent="1" source="0vmCwSITMYEpxmgcEM38-1" target="MrFOPrwiMeeWXGFkQ-52-22" edge="1">
          <mxGeometry relative="1" as="geometry" />
        </mxCell>
        <mxCell id="0vmCwSITMYEpxmgcEM38-1" value="Пользователь" style="whiteSpace=wrap;html=1;align=center;" parent="1" vertex="1">
          <mxGeometry x="167.5" y="330" width="100" height="40" as="geometry" />
        </mxCell>
        <mxCell id="0vmCwSITMYEpxmgcEM38-20" value="1" style="rounded=0;orthogonalLoop=1;jettySize=auto;html=1;" parent="1" source="0vmCwSITMYEpxmgcEM38-3" target="0vmCwSITMYEpxmgcEM38-7" edge="1">
          <mxGeometry relative="1" as="geometry" />
        </mxCell>
        <mxCell id="0vmCwSITMYEpxmgcEM38-26" value="1" style="edgeStyle=orthogonalEdgeStyle;rounded=0;orthogonalLoop=1;jettySize=auto;html=1;" parent="1" source="0vmCwSITMYEpxmgcEM38-3" target="0vmCwSITMYEpxmgcEM38-24" edge="1">
          <mxGeometry relative="1" as="geometry" />
        </mxCell>
        <mxCell id="0vmCwSITMYEpxmgcEM38-37" value="1" style="edgeStyle=orthogonalEdgeStyle;rounded=0;orthogonalLoop=1;jettySize=auto;html=1;" parent="1" source="0vmCwSITMYEpxmgcEM38-3" target="0vmCwSITMYEpxmgcEM38-10" edge="1">
          <mxGeometry relative="1" as="geometry" />
        </mxCell>
        <mxCell id="MrFOPrwiMeeWXGFkQ-52-23" value="1" style="rounded=0;orthogonalLoop=1;jettySize=auto;html=1;" parent="1" source="0vmCwSITMYEpxmgcEM38-3" target="MrFOPrwiMeeWXGFkQ-52-19" edge="1">
          <mxGeometry relative="1" as="geometry" />
        </mxCell>
        <mxCell id="0vmCwSITMYEpxmgcEM38-3" value="Система&amp;nbsp;автоматизированного учёта и анализа энергопотребления в доме" style="whiteSpace=wrap;html=1;align=center;" parent="1" vertex="1">
          <mxGeometry x="120" y="510" width="195" height="80" as="geometry" />
        </mxCell>
        <mxCell id="0vmCwSITMYEpxmgcEM38-19" value="1" style="edgeStyle=orthogonalEdgeStyle;rounded=0;orthogonalLoop=1;jettySize=auto;html=1;" parent="1" source="0vmCwSITMYEpxmgcEM38-6" target="0vmCwSITMYEpxmgcEM38-3" edge="1">
          <mxGeometry relative="1" as="geometry" />
        </mxCell>
        <mxCell id="0vmCwSITMYEpxmgcEM38-6" value="Взаимодействует" style="shape=rhombus;perimeter=rhombusPerimeter;whiteSpace=wrap;html=1;align=center;" parent="1" vertex="1">
          <mxGeometry x="157.5" y="410" width="120" height="60" as="geometry" />
        </mxCell>
        <mxCell id="0vmCwSITMYEpxmgcEM38-21" value="N" style="rounded=0;orthogonalLoop=1;jettySize=auto;html=1;" parent="1" source="0vmCwSITMYEpxmgcEM38-7" target="0vmCwSITMYEpxmgcEM38-8" edge="1">
          <mxGeometry x="0.0069" relative="1" as="geometry">
            <mxPoint as="offset" />
          </mxGeometry>
        </mxCell>
        <mxCell id="0vmCwSITMYEpxmgcEM38-7" value="Формирует" style="shape=rhombus;perimeter=rhombusPerimeter;whiteSpace=wrap;html=1;align=center;" parent="1" vertex="1">
          <mxGeometry x="-40" y="520" width="120" height="60" as="geometry" />
        </mxCell>
        <mxCell id="MrFOPrwiMeeWXGFkQ-52-38" style="rounded=0;orthogonalLoop=1;jettySize=auto;html=1;" parent="1" source="0vmCwSITMYEpxmgcEM38-8" target="MrFOPrwiMeeWXGFkQ-52-37" edge="1">
          <mxGeometry relative="1" as="geometry" />
        </mxCell>
        <mxCell id="MrFOPrwiMeeWXGFkQ-52-39" value="" style="rounded=0;orthogonalLoop=1;jettySize=auto;html=1;" parent="1" source="0vmCwSITMYEpxmgcEM38-8" target="MrFOPrwiMeeWXGFkQ-52-34" edge="1">
          <mxGeometry relative="1" as="geometry" />
        </mxCell>
        <mxCell id="0vmCwSITMYEpxmgcEM38-8" value="Отчёт" style="whiteSpace=wrap;html=1;align=center;" parent="1" vertex="1">
          <mxGeometry x="-190" y="530" width="100" height="40" as="geometry" />
        </mxCell>
        <mxCell id="0vmCwSITMYEpxmgcEM38-40" value="N" style="edgeStyle=orthogonalEdgeStyle;rounded=0;orthogonalLoop=1;jettySize=auto;html=1;" parent="1" source="0vmCwSITMYEpxmgcEM38-10" target="0vmCwSITMYEpxmgcEM38-11" edge="1">
          <mxGeometry relative="1" as="geometry" />
        </mxCell>
        <mxCell id="0vmCwSITMYEpxmgcEM38-10" value="Анализирует" style="shape=rhombus;perimeter=rhombusPerimeter;whiteSpace=wrap;html=1;align=center;" parent="1" vertex="1">
          <mxGeometry x="157.5" y="630" width="120" height="60" as="geometry" />
        </mxCell>
        <mxCell id="MrFOPrwiMeeWXGFkQ-52-6" style="rounded=0;orthogonalLoop=1;jettySize=auto;html=1;entryX=1;entryY=0;entryDx=0;entryDy=0;exitX=0;exitY=0.75;exitDx=0;exitDy=0;" parent="1" source="0vmCwSITMYEpxmgcEM38-11" target="MrFOPrwiMeeWXGFkQ-52-5" edge="1">
          <mxGeometry relative="1" as="geometry" />
        </mxCell>
        <mxCell id="MrFOPrwiMeeWXGFkQ-52-8" style="rounded=0;orthogonalLoop=1;jettySize=auto;html=1;" parent="1" source="0vmCwSITMYEpxmgcEM38-11" target="MrFOPrwiMeeWXGFkQ-52-7" edge="1">
          <mxGeometry relative="1" as="geometry" />
        </mxCell>
        <mxCell id="MrFOPrwiMeeWXGFkQ-52-10" value="" style="rounded=0;orthogonalLoop=1;jettySize=auto;html=1;exitX=1;exitY=0.75;exitDx=0;exitDy=0;" parent="1" source="0vmCwSITMYEpxmgcEM38-11" target="MrFOPrwiMeeWXGFkQ-52-9" edge="1">
          <mxGeometry relative="1" as="geometry" />
        </mxCell>
        <mxCell id="0vmCwSITMYEpxmgcEM38-11" value="Энергоресурсы" style="whiteSpace=wrap;html=1;align=center;" parent="1" vertex="1">
          <mxGeometry x="156.25" y="730" width="122.5" height="50" as="geometry" />
        </mxCell>
        <mxCell id="0vmCwSITMYEpxmgcEM38-22" value="ФИО" style="ellipse;whiteSpace=wrap;html=1;align=center;" parent="1" vertex="1">
          <mxGeometry x="120" y="210" width="100" height="40" as="geometry" />
        </mxCell>
        <mxCell id="0vmCwSITMYEpxmgcEM38-23" value="Электронная почта" style="ellipse;whiteSpace=wrap;html=1;align=center;" parent="1" vertex="1">
          <mxGeometry x="297.5" y="320" width="115" height="40" as="geometry" />
        </mxCell>
        <mxCell id="0vmCwSITMYEpxmgcEM38-27" value="N" style="edgeStyle=orthogonalEdgeStyle;rounded=0;orthogonalLoop=1;jettySize=auto;html=1;" parent="1" source="0vmCwSITMYEpxmgcEM38-24" target="0vmCwSITMYEpxmgcEM38-25" edge="1">
          <mxGeometry relative="1" as="geometry" />
        </mxCell>
        <mxCell id="0vmCwSITMYEpxmgcEM38-24" value="Хранит" style="shape=rhombus;perimeter=rhombusPerimeter;whiteSpace=wrap;html=1;align=center;" parent="1" vertex="1">
          <mxGeometry x="350" y="520" width="140" height="60" as="geometry" />
        </mxCell>
        <mxCell id="MrFOPrwiMeeWXGFkQ-52-13" value="" style="rounded=0;orthogonalLoop=1;jettySize=auto;html=1;" parent="1" source="0vmCwSITMYEpxmgcEM38-25" target="MrFOPrwiMeeWXGFkQ-52-12" edge="1">
          <mxGeometry relative="1" as="geometry" />
        </mxCell>
        <mxCell id="MrFOPrwiMeeWXGFkQ-52-14" value="" style="rounded=0;orthogonalLoop=1;jettySize=auto;html=1;" parent="1" source="0vmCwSITMYEpxmgcEM38-25" target="MrFOPrwiMeeWXGFkQ-52-11" edge="1">
          <mxGeometry relative="1" as="geometry" />
        </mxCell>
        <mxCell id="0vmCwSITMYEpxmgcEM38-25" value="Данные о потреблении" style="whiteSpace=wrap;html=1;align=center;" parent="1" vertex="1">
          <mxGeometry x="520" y="530" width="100" height="40" as="geometry" />
        </mxCell>
        <mxCell id="0vmCwSITMYEpxmgcEM38-28" value="&lt;u&gt;id&lt;/u&gt;" style="ellipse;whiteSpace=wrap;html=1;align=center;" parent="1" vertex="1">
          <mxGeometry x="105" y="270" width="100" height="40" as="geometry" />
        </mxCell>
        <mxCell id="0vmCwSITMYEpxmgcEM38-35" value="Пароль" style="ellipse;whiteSpace=wrap;html=1;align=center;" parent="1" vertex="1">
          <mxGeometry x="290" y="270" width="100" height="40" as="geometry" />
        </mxCell>
        <mxCell id="MrFOPrwiMeeWXGFkQ-52-1" value="Логин" style="ellipse;whiteSpace=wrap;html=1;align=center;" parent="1" vertex="1">
          <mxGeometry x="235" y="220" width="115" height="40" as="geometry" />
        </mxCell>
        <mxCell id="MrFOPrwiMeeWXGFkQ-52-3" value="Роль" style="ellipse;whiteSpace=wrap;html=1;align=center;" parent="1" vertex="1">
          <mxGeometry x="282.5" y="370" width="115" height="40" as="geometry" />
        </mxCell>
        <mxCell id="MrFOPrwiMeeWXGFkQ-52-4" style="rounded=0;orthogonalLoop=1;jettySize=auto;html=1;exitX=1;exitY=1;exitDx=0;exitDy=0;entryX=0.043;entryY=0.35;entryDx=0;entryDy=0;entryPerimeter=0;" parent="1" source="0vmCwSITMYEpxmgcEM38-1" target="MrFOPrwiMeeWXGFkQ-52-3" edge="1">
          <mxGeometry relative="1" as="geometry" />
        </mxCell>
        <mxCell id="MrFOPrwiMeeWXGFkQ-52-5" value="&lt;u&gt;id&lt;/u&gt;" style="ellipse;whiteSpace=wrap;html=1;align=center;" parent="1" vertex="1">
          <mxGeometry x="50" y="780" width="100" height="40" as="geometry" />
        </mxCell>
        <mxCell id="MrFOPrwiMeeWXGFkQ-52-7" value="Тип" style="ellipse;whiteSpace=wrap;html=1;align=center;" parent="1" vertex="1">
          <mxGeometry x="167.5" y="810" width="100" height="40" as="geometry" />
        </mxCell>
        <mxCell id="MrFOPrwiMeeWXGFkQ-52-9" value="Стоимость" style="ellipse;whiteSpace=wrap;html=1;align=center;" parent="1" vertex="1">
          <mxGeometry x="290" y="790" width="100" height="40" as="geometry" />
        </mxCell>
        <mxCell id="MrFOPrwiMeeWXGFkQ-52-11" value="Период" style="ellipse;whiteSpace=wrap;html=1;align=center;" parent="1" vertex="1">
          <mxGeometry x="510" y="610" width="100" height="40" as="geometry" />
        </mxCell>
        <mxCell id="MrFOPrwiMeeWXGFkQ-52-12" value="Общая стоимость каждого ресурса" style="ellipse;whiteSpace=wrap;html=1;align=center;" parent="1" vertex="1">
          <mxGeometry x="480" y="440" width="130" height="45" as="geometry" />
        </mxCell>
        <mxCell id="MrFOPrwiMeeWXGFkQ-52-19" value="Отправляет" style="shape=rhombus;perimeter=rhombusPerimeter;whiteSpace=wrap;html=1;align=center;" parent="1" vertex="1">
          <mxGeometry x="10" y="440" width="120" height="60" as="geometry" />
        </mxCell>
        <mxCell id="MrFOPrwiMeeWXGFkQ-52-29" style="rounded=0;orthogonalLoop=1;jettySize=auto;html=1;entryX=0.5;entryY=1;entryDx=0;entryDy=0;" parent="1" source="MrFOPrwiMeeWXGFkQ-52-20" target="MrFOPrwiMeeWXGFkQ-52-28" edge="1">
          <mxGeometry relative="1" as="geometry" />
        </mxCell>
        <mxCell id="MrFOPrwiMeeWXGFkQ-52-31" style="edgeStyle=orthogonalEdgeStyle;rounded=0;orthogonalLoop=1;jettySize=auto;html=1;entryX=1;entryY=0.5;entryDx=0;entryDy=0;" parent="1" source="MrFOPrwiMeeWXGFkQ-52-20" target="MrFOPrwiMeeWXGFkQ-52-30" edge="1">
          <mxGeometry relative="1" as="geometry" />
        </mxCell>
        <mxCell id="MrFOPrwiMeeWXGFkQ-52-20" value="Уведомление" style="whiteSpace=wrap;html=1;align=center;" parent="1" vertex="1">
          <mxGeometry x="-150" y="360" width="100" height="40" as="geometry" />
        </mxCell>
        <mxCell id="MrFOPrwiMeeWXGFkQ-52-27" value="N" style="rounded=0;orthogonalLoop=1;jettySize=auto;html=1;entryX=1;entryY=0.25;entryDx=0;entryDy=0;" parent="1" source="MrFOPrwiMeeWXGFkQ-52-22" target="MrFOPrwiMeeWXGFkQ-52-20" edge="1">
          <mxGeometry relative="1" as="geometry" />
        </mxCell>
        <mxCell id="MrFOPrwiMeeWXGFkQ-52-40" style="rounded=0;orthogonalLoop=1;jettySize=auto;html=1;" parent="1" source="MrFOPrwiMeeWXGFkQ-52-22" target="0vmCwSITMYEpxmgcEM38-8" edge="1">
          <mxGeometry relative="1" as="geometry" />
        </mxCell>
        <mxCell id="MrFOPrwiMeeWXGFkQ-52-41" value="N" style="edgeLabel;html=1;align=center;verticalAlign=middle;resizable=0;points=[];" parent="MrFOPrwiMeeWXGFkQ-52-40" vertex="1" connectable="0">
          <mxGeometry x="0.2742" y="1" relative="1" as="geometry">
            <mxPoint as="offset" />
          </mxGeometry>
        </mxCell>
        <mxCell id="MrFOPrwiMeeWXGFkQ-52-22" value="Получает" style="shape=rhombus;perimeter=rhombusPerimeter;whiteSpace=wrap;html=1;align=center;" parent="1" vertex="1">
          <mxGeometry y="330" width="120" height="60" as="geometry" />
        </mxCell>
        <mxCell id="MrFOPrwiMeeWXGFkQ-52-24" value="N" style="rounded=0;orthogonalLoop=1;jettySize=auto;html=1;entryX=0.869;entryY=0.924;entryDx=0;entryDy=0;entryPerimeter=0;" parent="1" source="MrFOPrwiMeeWXGFkQ-52-19" target="MrFOPrwiMeeWXGFkQ-52-20" edge="1">
          <mxGeometry relative="1" as="geometry" />
        </mxCell>
        <mxCell id="MrFOPrwiMeeWXGFkQ-52-28" value="Дата и время" style="ellipse;whiteSpace=wrap;html=1;align=center;" parent="1" vertex="1">
          <mxGeometry x="-170" y="280" width="100" height="40" as="geometry" />
        </mxCell>
        <mxCell id="MrFOPrwiMeeWXGFkQ-52-30" value="Описание" style="ellipse;whiteSpace=wrap;html=1;align=center;" parent="1" vertex="1">
          <mxGeometry x="-280" y="360" width="100" height="40" as="geometry" />
        </mxCell>
        <mxCell id="MrFOPrwiMeeWXGFkQ-52-32" value="id получателя" style="ellipse;whiteSpace=wrap;html=1;align=center;" parent="1" vertex="1">
          <mxGeometry x="-180" y="420" width="100" height="40" as="geometry" />
        </mxCell>
        <mxCell id="MrFOPrwiMeeWXGFkQ-52-33" style="rounded=0;orthogonalLoop=1;jettySize=auto;html=1;entryX=0.553;entryY=-0.011;entryDx=0;entryDy=0;entryPerimeter=0;" parent="1" source="MrFOPrwiMeeWXGFkQ-52-20" target="MrFOPrwiMeeWXGFkQ-52-32" edge="1">
          <mxGeometry relative="1" as="geometry" />
        </mxCell>
        <mxCell id="MrFOPrwiMeeWXGFkQ-52-34" value="Описание" style="ellipse;whiteSpace=wrap;html=1;align=center;" parent="1" vertex="1">
          <mxGeometry x="-320" y="550" width="100" height="40" as="geometry" />
        </mxCell>
        <mxCell id="MrFOPrwiMeeWXGFkQ-52-37" value="Дата создания" style="ellipse;whiteSpace=wrap;html=1;align=center;" parent="1" vertex="1">
          <mxGeometry x="-200" y="600" width="100" height="40" as="geometry" />
        </mxCell>
      </root>
    </mxGraphModel>
  </diagram>
</mxfile>
